<?xml version="1.0" encoding="UTF-8"?>
<svg id="Ebene_1" xmlns="http://www.w3.org/2000/svg" version="1.1" viewBox="0 0 650.9 246.7">
  <!-- Generator: Adobe Illustrator 29.1.0, SVG Export Plug-In . SVG Version: 2.1.0 Build 142)  -->
  <defs>
    <style>
      .st0 {
        fill: #fff;
      }
    </style>
  </defs>
  <g>
    <path class="st0" d="M66,246.7l74.9-63.5c17.8-14.7,26.8-30.5,26.8-47.6v-17.8c0-12.3-2.9-21.1-8.6-26.5-5.8-5.4-15.2-8-28.2-8h-20.8c-12.7,0-21.6,2.7-26.8,8-5.2,5.4-7.7,14.2-7.7,26.5v19c0,8.7-4.2,13.1-12.5,13.1H12.5c-8.3,0-12.5-4.4-12.5-13.1v-20.2c0-30.9,8.5-54.7,25.6-71.4,17-16.7,41.2-25,72.5-25h45.2c31.3,0,55.5,8.3,72.5,25,17,16.7,25.6,40.4,25.6,71.4v23.8c0,30.9-11.9,56.5-35.7,76.7l-34.8,29.6"/>
    <path class="st0" d="M328.4,246.7V100.5l-58.3,33.3c-8.3,3.6-12.5,1.2-12.5-7.1v-48.8c0-6.7,3-11.9,8.9-15.5l54.1-33.9c9.1-5.5,16.8-8.3,23.2-8.3h47.6c8.3,0,12.5,4.2,12.5,12.5v214"/>
  </g>
  <g>
    <path class="st0" d="M510.4,246.7h-13.7c-17.3,0-30.7-4.8-40.2-14.4-9.5-9.6-14.2-23-14.2-40.1v-70.3c0-17.3,4.7-30.7,14.2-40.2s22.9-14.2,40.2-14.2h78.7c4.2,0,6.3,2,6.3,6v167.3c0,4-2.1,6-6.3,6h-22.1c-4,0-6-2-6-6v-12.7h-1.4c-5.6,12.4-17.5,18.6-35.5,18.6ZM547.3,186.9v-86.1c0-2.3-1.3-3.5-3.9-3.5h-41.8c-16.9,0-25.3,8.7-25.3,26v67.5c0,17.3,8.4,26,25.3,26h16.9c19.2,0,28.8-10,28.8-29.9Z"/>
    <path class="st0" d="M616.8,37.6V5.6c0-3.7,1.9-5.6,5.6-5.6h22.8c3.7,0,5.6,1.9,5.6,5.6v32c0,4-1.9,6-5.6,6h-22.8c-3.7,0-5.6-2-5.6-6ZM616.8,240.7V73.4c0-4,1.9-6,5.6-6h22.5c4,0,6,2,6,6v167.3c0,2.3-.4,3.9-1.2,4.7-.8.8-2.3,1.2-4.4,1.2h-22.5c-4,0-6-2-6-6Z"/>
  </g>
</svg>